<mxfile host="app.diagrams.net" modified="2022-02-11T10:09:29.416Z" agent="5.0 (Windows NT 10.0; Win64; x64) AppleWebKit/537.36 (KHTML, like Gecko) Chrome/98.0.4758.82 Safari/537.36" etag="wGdhsxKODcWkW_mFyXBA" version="16.5.3" type="github">
  <diagram id="HMgrvoSyfSKHuGCKJPUB" name="Page-1">
    <mxGraphModel dx="1209" dy="671" grid="1" gridSize="10" guides="1" tooltips="1" connect="1" arrows="1" fold="1" page="1" pageScale="1" pageWidth="1169" pageHeight="1654" math="0" shadow="0">
      <root>
        <mxCell id="0" />
        <mxCell id="1" parent="0" />
        <mxCell id="sUrJkroGvJb6hWGGBYY--3" value="Pool" style="swimlane;childLayout=stackLayout;resizeParent=1;resizeParentMax=0;horizontal=1;startSize=20;horizontalStack=0;" parent="1" vertex="1">
          <mxGeometry x="330" y="20" width="650" height="380" as="geometry" />
        </mxCell>
        <mxCell id="sUrJkroGvJb6hWGGBYY--4" value="ROOT" style="swimlane;startSize=20;horizontal=0;" parent="sUrJkroGvJb6hWGGBYY--3" vertex="1">
          <mxGeometry y="20" width="650" height="120" as="geometry" />
        </mxCell>
        <mxCell id="sUrJkroGvJb6hWGGBYY--1" value="HOMEPAGE" style="rounded=1;whiteSpace=wrap;html=1;fillColor=#dae8fc;strokeColor=#6c8ebf;" parent="sUrJkroGvJb6hWGGBYY--4" vertex="1">
          <mxGeometry x="265" y="20" width="120" height="60" as="geometry" />
        </mxCell>
        <mxCell id="sUrJkroGvJb6hWGGBYY--5" value="SPACES" style="swimlane;startSize=20;horizontal=0;" parent="sUrJkroGvJb6hWGGBYY--3" vertex="1">
          <mxGeometry y="140" width="650" height="120" as="geometry" />
        </mxCell>
        <mxCell id="sUrJkroGvJb6hWGGBYY--2" value="AppDev" style="rounded=1;whiteSpace=wrap;html=1;fillColor=#ffe6cc;strokeColor=#d79b00;" parent="sUrJkroGvJb6hWGGBYY--5" vertex="1">
          <mxGeometry x="70" y="40" width="90" height="40" as="geometry" />
        </mxCell>
        <mxCell id="sUrJkroGvJb6hWGGBYY--7" value="IM-SSC" style="rounded=1;whiteSpace=wrap;html=1;fillColor=#ffe6cc;strokeColor=#d79b00;" parent="sUrJkroGvJb6hWGGBYY--5" vertex="1">
          <mxGeometry x="280" y="40" width="90" height="40" as="geometry" />
        </mxCell>
        <mxCell id="sUrJkroGvJb6hWGGBYY--8" value="Support Knowledge base" style="rounded=1;whiteSpace=wrap;html=1;fillColor=#ffe6cc;strokeColor=#d79b00;" parent="sUrJkroGvJb6hWGGBYY--5" vertex="1">
          <mxGeometry x="510" y="40" width="90" height="40" as="geometry" />
        </mxCell>
        <mxCell id="VwkPq1fQDM31158uUM1_-1" value="Data Architecture" style="rounded=1;whiteSpace=wrap;html=1;fillColor=#ffe6cc;strokeColor=#d79b00;" vertex="1" parent="sUrJkroGvJb6hWGGBYY--5">
          <mxGeometry x="170" y="40" width="90" height="40" as="geometry" />
        </mxCell>
        <mxCell id="VwkPq1fQDM31158uUM1_-4" value="IMpact" style="rounded=1;whiteSpace=wrap;html=1;fillColor=#ffe6cc;strokeColor=#d79b00;" vertex="1" parent="sUrJkroGvJb6hWGGBYY--5">
          <mxGeometry x="390" y="40" width="90" height="40" as="geometry" />
        </mxCell>
        <mxCell id="sUrJkroGvJb6hWGGBYY--6" value="DOC TYPE" style="swimlane;startSize=20;horizontal=0;" parent="sUrJkroGvJb6hWGGBYY--3" vertex="1">
          <mxGeometry y="260" width="650" height="120" as="geometry" />
        </mxCell>
        <mxCell id="sUrJkroGvJb6hWGGBYY--26" value="NUTRITION" style="rounded=1;whiteSpace=wrap;html=1;fillColor=#1ba1e2;strokeColor=#006EAF;fontColor=#ffffff;opacity=30;" parent="sUrJkroGvJb6hWGGBYY--6" vertex="1">
          <mxGeometry x="70" y="10" width="90" height="30" as="geometry" />
        </mxCell>
        <mxCell id="sUrJkroGvJb6hWGGBYY--27" value="HEALTH" style="rounded=1;whiteSpace=wrap;html=1;fillColor=#1ba1e2;strokeColor=#006EAF;fontColor=#ffffff;opacity=30;" parent="sUrJkroGvJb6hWGGBYY--6" vertex="1">
          <mxGeometry x="70" y="45" width="90" height="30" as="geometry" />
        </mxCell>
        <mxCell id="sUrJkroGvJb6hWGGBYY--29" value="NUT" style="rounded=1;whiteSpace=wrap;html=1;fillColor=#1ba1e2;strokeColor=#006EAF;fontColor=#ffffff;opacity=30;" parent="sUrJkroGvJb6hWGGBYY--6" vertex="1">
          <mxGeometry x="391" y="15" width="90" height="30" as="geometry" />
        </mxCell>
        <mxCell id="sUrJkroGvJb6hWGGBYY--30" value="HEA" style="rounded=1;whiteSpace=wrap;html=1;fillColor=#1ba1e2;strokeColor=#006EAF;fontColor=#ffffff;opacity=30;" parent="sUrJkroGvJb6hWGGBYY--6" vertex="1">
          <mxGeometry x="391" y="50" width="90" height="30" as="geometry" />
        </mxCell>
        <mxCell id="VwkPq1fQDM31158uUM1_-16" value="NUTRITION" style="rounded=1;whiteSpace=wrap;html=1;fillColor=#1ba1e2;strokeColor=#006EAF;fontColor=#ffffff;opacity=30;" vertex="1" parent="sUrJkroGvJb6hWGGBYY--6">
          <mxGeometry x="255" y="10" width="90" height="30" as="geometry" />
        </mxCell>
        <mxCell id="VwkPq1fQDM31158uUM1_-17" value="HEALTH" style="rounded=1;whiteSpace=wrap;html=1;fillColor=#1ba1e2;strokeColor=#006EAF;fontColor=#ffffff;opacity=30;" vertex="1" parent="sUrJkroGvJb6hWGGBYY--6">
          <mxGeometry x="255" y="45" width="90" height="30" as="geometry" />
        </mxCell>
        <mxCell id="sUrJkroGvJb6hWGGBYY--9" style="edgeStyle=orthogonalEdgeStyle;rounded=0;orthogonalLoop=1;jettySize=auto;html=1;exitX=0;exitY=0.5;exitDx=0;exitDy=0;entryX=0.5;entryY=0;entryDx=0;entryDy=0;" parent="sUrJkroGvJb6hWGGBYY--3" source="sUrJkroGvJb6hWGGBYY--1" target="sUrJkroGvJb6hWGGBYY--2" edge="1">
          <mxGeometry relative="1" as="geometry" />
        </mxCell>
        <mxCell id="sUrJkroGvJb6hWGGBYY--10" style="edgeStyle=orthogonalEdgeStyle;rounded=0;orthogonalLoop=1;jettySize=auto;html=1;exitX=0.5;exitY=1;exitDx=0;exitDy=0;entryX=0.5;entryY=0;entryDx=0;entryDy=0;" parent="sUrJkroGvJb6hWGGBYY--3" source="sUrJkroGvJb6hWGGBYY--1" target="sUrJkroGvJb6hWGGBYY--7" edge="1">
          <mxGeometry relative="1" as="geometry" />
        </mxCell>
        <mxCell id="sUrJkroGvJb6hWGGBYY--11" style="edgeStyle=orthogonalEdgeStyle;rounded=0;orthogonalLoop=1;jettySize=auto;html=1;exitX=1;exitY=0.5;exitDx=0;exitDy=0;" parent="sUrJkroGvJb6hWGGBYY--3" source="sUrJkroGvJb6hWGGBYY--1" target="sUrJkroGvJb6hWGGBYY--8" edge="1">
          <mxGeometry relative="1" as="geometry" />
        </mxCell>
        <mxCell id="VwkPq1fQDM31158uUM1_-2" style="edgeStyle=orthogonalEdgeStyle;rounded=0;orthogonalLoop=1;jettySize=auto;html=1;exitX=0.25;exitY=1;exitDx=0;exitDy=0;entryX=0.5;entryY=0;entryDx=0;entryDy=0;" edge="1" parent="sUrJkroGvJb6hWGGBYY--3" source="sUrJkroGvJb6hWGGBYY--1" target="VwkPq1fQDM31158uUM1_-1">
          <mxGeometry relative="1" as="geometry">
            <Array as="points">
              <mxPoint x="295" y="120" />
              <mxPoint x="215" y="120" />
            </Array>
          </mxGeometry>
        </mxCell>
        <mxCell id="VwkPq1fQDM31158uUM1_-7" style="edgeStyle=orthogonalEdgeStyle;rounded=0;orthogonalLoop=1;jettySize=auto;html=1;exitX=0.5;exitY=1;exitDx=0;exitDy=0;entryX=0.5;entryY=0;entryDx=0;entryDy=0;" edge="1" parent="sUrJkroGvJb6hWGGBYY--3" source="VwkPq1fQDM31158uUM1_-4" target="sUrJkroGvJb6hWGGBYY--29">
          <mxGeometry relative="1" as="geometry">
            <mxPoint x="440" y="270" as="targetPoint" />
          </mxGeometry>
        </mxCell>
        <mxCell id="VwkPq1fQDM31158uUM1_-18" style="edgeStyle=orthogonalEdgeStyle;rounded=0;orthogonalLoop=1;jettySize=auto;html=1;exitX=0.5;exitY=1;exitDx=0;exitDy=0;entryX=0.5;entryY=0;entryDx=0;entryDy=0;" edge="1" parent="sUrJkroGvJb6hWGGBYY--3" source="sUrJkroGvJb6hWGGBYY--7" target="VwkPq1fQDM31158uUM1_-16">
          <mxGeometry relative="1" as="geometry" />
        </mxCell>
        <mxCell id="sUrJkroGvJb6hWGGBYY--25" value="PROJECT" style="swimlane;startSize=20;horizontal=0;" parent="1" vertex="1">
          <mxGeometry x="330" y="400" width="650" height="120" as="geometry" />
        </mxCell>
        <mxCell id="sUrJkroGvJb6hWGGBYY--17" value="TECHNICAL DOC" style="rounded=1;whiteSpace=wrap;html=1;fillColor=#d5e8d4;strokeColor=#82b366;opacity=80;" parent="sUrJkroGvJb6hWGGBYY--25" vertex="1">
          <mxGeometry x="400" y="15" width="90" height="30" as="geometry" />
        </mxCell>
        <mxCell id="VwkPq1fQDM31158uUM1_-11" style="edgeStyle=orthogonalEdgeStyle;rounded=0;orthogonalLoop=1;jettySize=auto;html=1;entryX=0;entryY=0.5;entryDx=0;entryDy=0;" edge="1" parent="sUrJkroGvJb6hWGGBYY--25" source="sUrJkroGvJb6hWGGBYY--18" target="VwkPq1fQDM31158uUM1_-10">
          <mxGeometry relative="1" as="geometry" />
        </mxCell>
        <mxCell id="sUrJkroGvJb6hWGGBYY--18" value="USER DOC" style="rounded=1;whiteSpace=wrap;html=1;fillColor=#d5e8d4;strokeColor=#82b366;opacity=50;" parent="sUrJkroGvJb6hWGGBYY--25" vertex="1">
          <mxGeometry x="400" y="50" width="90" height="30" as="geometry" />
        </mxCell>
        <mxCell id="VwkPq1fQDM31158uUM1_-10" value="USER DOC" style="rounded=1;whiteSpace=wrap;html=1;fillColor=#d5e8d4;strokeColor=#82b366;opacity=50;" vertex="1" parent="sUrJkroGvJb6hWGGBYY--25">
          <mxGeometry x="518" y="50" width="90" height="30" as="geometry" />
        </mxCell>
        <mxCell id="sUrJkroGvJb6hWGGBYY--13" value="TECHNICAL DOC" style="rounded=1;whiteSpace=wrap;html=1;fillColor=#d5e8d4;strokeColor=#82b366;opacity=80;" parent="sUrJkroGvJb6hWGGBYY--25" vertex="1">
          <mxGeometry x="90" y="15" width="90" height="30" as="geometry" />
        </mxCell>
        <mxCell id="VwkPq1fQDM31158uUM1_-23" style="edgeStyle=orthogonalEdgeStyle;rounded=0;orthogonalLoop=1;jettySize=auto;html=1;entryX=0.5;entryY=1;entryDx=0;entryDy=0;" edge="1" parent="sUrJkroGvJb6hWGGBYY--25" source="sUrJkroGvJb6hWGGBYY--14" target="sUrJkroGvJb6hWGGBYY--18">
          <mxGeometry relative="1" as="geometry">
            <Array as="points">
              <mxPoint x="305" y="90" />
              <mxPoint x="375" y="90" />
              <mxPoint x="375" y="100" />
              <mxPoint x="445" y="100" />
            </Array>
          </mxGeometry>
        </mxCell>
        <mxCell id="sUrJkroGvJb6hWGGBYY--14" value="USER DOC" style="rounded=1;whiteSpace=wrap;html=1;fillColor=#d5e8d4;strokeColor=#82b366;opacity=50;" parent="sUrJkroGvJb6hWGGBYY--25" vertex="1">
          <mxGeometry x="260" y="50" width="90" height="30" as="geometry" />
        </mxCell>
        <mxCell id="VwkPq1fQDM31158uUM1_-15" value="TECHNICAL DOC" style="rounded=1;whiteSpace=wrap;html=1;fillColor=#d5e8d4;strokeColor=#82b366;opacity=80;" vertex="1" parent="sUrJkroGvJb6hWGGBYY--25">
          <mxGeometry x="260" y="15" width="90" height="30" as="geometry" />
        </mxCell>
        <mxCell id="VwkPq1fQDM31158uUM1_-3" value="&lt;h1&gt;IMpct -&amp;gt; Generic Docs-&amp;gt; Technical -&amp;gt; How-to customize screening surveys&lt;/h1&gt;" style="text;html=1;strokeColor=none;fillColor=none;spacing=5;spacingTop=-20;whiteSpace=wrap;overflow=hidden;rounded=0;" vertex="1" parent="1">
          <mxGeometry y="240" width="340" height="260" as="geometry" />
        </mxCell>
        <mxCell id="sUrJkroGvJb6hWGGBYY--24" style="edgeStyle=orthogonalEdgeStyle;rounded=0;orthogonalLoop=1;jettySize=auto;html=1;exitX=0.5;exitY=1;exitDx=0;exitDy=0;" parent="1" source="sUrJkroGvJb6hWGGBYY--8" target="VwkPq1fQDM31158uUM1_-10" edge="1">
          <mxGeometry relative="1" as="geometry">
            <mxPoint x="885" y="290" as="targetPoint" />
            <Array as="points">
              <mxPoint x="893" y="240" />
            </Array>
          </mxGeometry>
        </mxCell>
        <mxCell id="VwkPq1fQDM31158uUM1_-12" style="edgeStyle=orthogonalEdgeStyle;rounded=0;orthogonalLoop=1;jettySize=auto;html=1;exitX=0.5;exitY=1;exitDx=0;exitDy=0;entryX=0.5;entryY=0;entryDx=0;entryDy=0;" edge="1" parent="1" source="sUrJkroGvJb6hWGGBYY--30" target="sUrJkroGvJb6hWGGBYY--17">
          <mxGeometry relative="1" as="geometry" />
        </mxCell>
        <mxCell id="VwkPq1fQDM31158uUM1_-13" style="edgeStyle=orthogonalEdgeStyle;rounded=0;orthogonalLoop=1;jettySize=auto;html=1;exitX=0;exitY=0.5;exitDx=0;exitDy=0;entryX=0;entryY=0.75;entryDx=0;entryDy=0;" edge="1" parent="1" source="sUrJkroGvJb6hWGGBYY--30" target="sUrJkroGvJb6hWGGBYY--17">
          <mxGeometry relative="1" as="geometry" />
        </mxCell>
        <mxCell id="VwkPq1fQDM31158uUM1_-14" style="edgeStyle=orthogonalEdgeStyle;rounded=0;orthogonalLoop=1;jettySize=auto;html=1;exitX=0;exitY=0.5;exitDx=0;exitDy=0;entryX=0;entryY=0.75;entryDx=0;entryDy=0;" edge="1" parent="1" source="sUrJkroGvJb6hWGGBYY--29" target="sUrJkroGvJb6hWGGBYY--18">
          <mxGeometry relative="1" as="geometry" />
        </mxCell>
        <mxCell id="VwkPq1fQDM31158uUM1_-19" style="edgeStyle=orthogonalEdgeStyle;rounded=0;orthogonalLoop=1;jettySize=auto;html=1;exitX=0.5;exitY=1;exitDx=0;exitDy=0;entryX=0.5;entryY=0;entryDx=0;entryDy=0;" edge="1" parent="1" source="VwkPq1fQDM31158uUM1_-17" target="VwkPq1fQDM31158uUM1_-15">
          <mxGeometry relative="1" as="geometry" />
        </mxCell>
      </root>
    </mxGraphModel>
  </diagram>
</mxfile>
